<?xml version="1.0" encoding="UTF-8" standalone="no"?><svg xmlns="http://www.w3.org/2000/svg" xmlns:xlink="http://www.w3.org/1999/xlink" contentScriptType="application/ecmascript" contentStyleType="text/css" height="141px" preserveAspectRatio="none" style="width:110px;height:141px;" version="1.1" viewBox="0 0 110 141" width="110px" zoomAndPan="magnify"><defs><filter height="300%" id="ff2m67i" width="300%" x="-1" y="-1"><feGaussianBlur result="blurOut" stdDeviation="2.0"/><feColorMatrix in="blurOut" result="blurOut2" type="matrix" values="0 0 0 0 0 0 0 0 0 0 0 0 0 0 0 0 0 0 .4 0"/><feOffset dx="4.0" dy="4.0" in="blurOut2" result="blurOut3"/><feBlend in="SourceGraphic" in2="blurOut3" mode="normal"/></filter></defs><g><line style="stroke: #A80036; stroke-width: 1.0; stroke-dasharray: 5.0,5.0;" x1="21" x2="21" y1="39.6094" y2="101.6094"/><line style="stroke: #A80036; stroke-width: 1.0; stroke-dasharray: 5.0,5.0;" x1="57" x2="57" y1="39.6094" y2="101.6094"/><line style="stroke: #A80036; stroke-width: 1.0; stroke-dasharray: 5.0,5.0;" x1="92" x2="92" y1="39.6094" y2="101.6094"/><rect fill="#FEFECE" filter="url(#ff2m67i)" height="31.6094" style="stroke: #A80036; stroke-width: 1.5;" width="22" x="8" y="3"/><text fill="#0000FF" font-family="sans-serif" font-size="14" lengthAdjust="spacingAndGlyphs" textLength="8" x="15" y="24.5332">a</text><rect fill="#FEFECE" filter="url(#ff2m67i)" height="31.6094" style="stroke: #A80036; stroke-width: 1.5;" width="22" x="8" y="100.6094"/><text fill="#0000FF" font-family="sans-serif" font-size="14" lengthAdjust="spacingAndGlyphs" textLength="8" x="15" y="122.1426">a</text><rect fill="#FEFECE" filter="url(#ff2m67i)" height="31.6094" style="stroke: #A80036; stroke-width: 1.5;" width="22" x="44" y="3"/><text fill="#0000FF" font-family="sans-serif" font-size="14" lengthAdjust="spacingAndGlyphs" textLength="8" x="51" y="24.5332">b</text><rect fill="#FEFECE" filter="url(#ff2m67i)" height="31.6094" style="stroke: #A80036; stroke-width: 1.5;" width="22" x="44" y="100.6094"/><text fill="#0000FF" font-family="sans-serif" font-size="14" lengthAdjust="spacingAndGlyphs" textLength="8" x="51" y="122.1426">b</text><rect fill="#FEFECE" filter="url(#ff2m67i)" height="31.6094" style="stroke: #A80036; stroke-width: 1.5;" width="21" x="80" y="3"/><text fill="#0000FF" font-family="sans-serif" font-size="14" lengthAdjust="spacingAndGlyphs" textLength="7" x="87" y="24.5332">c</text><rect fill="#FEFECE" filter="url(#ff2m67i)" height="31.6094" style="stroke: #A80036; stroke-width: 1.5;" width="21" x="80" y="100.6094"/><text fill="#0000FF" font-family="sans-serif" font-size="14" lengthAdjust="spacingAndGlyphs" textLength="7" x="87" y="122.1426">c</text><polygon fill="#A80036" points="45,51.6094,55,55.6094,45,59.6094,49,55.6094" style="stroke: #A80036; stroke-width: 1.0;"/><line style="stroke: #A80036; stroke-width: 1.0;" x1="21" x2="51" y1="55.6094" y2="55.6094"/><polygon fill="#A80036" points="80.5,65.6094,90.5,69.6094,80.5,73.6094,84.5,69.6094" style="stroke: #A80036; stroke-width: 1.0;"/><line style="stroke: #A80036; stroke-width: 1.0;" x1="57" x2="86.5" y1="69.6094" y2="69.6094"/><polygon fill="#A80036" points="32,79.6094,22,83.6094,32,87.6094,28,83.6094" style="stroke: #A80036; stroke-width: 1.0;"/><line style="stroke: #A80036; stroke-width: 1.0;" x1="26" x2="91.5" y1="83.6094" y2="83.6094"/></g></svg>