<?xml version="1.0" encoding="UTF-8" standalone="no"?><svg xmlns="http://www.w3.org/2000/svg" xmlns:xlink="http://www.w3.org/1999/xlink" contentScriptType="application/ecmascript" contentStyleType="text/css" height="157px" preserveAspectRatio="none" style="width:153px;height:157px;" version="1.1" viewBox="0 0 153 157" width="153px" zoomAndPan="magnify"><defs><filter height="300%" id="fz5usm8" width="300%" x="-1" y="-1"><feGaussianBlur result="blurOut" stdDeviation="2.0"/><feColorMatrix in="blurOut" result="blurOut2" type="matrix" values="0 0 0 0 0 0 0 0 0 0 0 0 0 0 0 0 0 0 .4 0"/><feOffset dx="4.0" dy="4.0" in="blurOut2" result="blurOut3"/><feBlend in="SourceGraphic" in2="blurOut3" mode="normal"/></filter></defs><g><line style="stroke: #A80036; stroke-width: 1.0; stroke-dasharray: 5.0,5.0;" x1="21" x2="21" y1="39.6094" y2="117.9609"/><line style="stroke: #A80036; stroke-width: 1.0; stroke-dasharray: 5.0,5.0;" x1="57" x2="57" y1="39.6094" y2="117.9609"/><line style="stroke: #A80036; stroke-width: 1.0; stroke-dasharray: 5.0,5.0;" x1="135.5" x2="135.5" y1="39.6094" y2="117.9609"/><rect fill="#FEFECE" filter="url(#fz5usm8)" height="31.6094" style="stroke: #A80036; stroke-width: 1.5;" width="22" x="8" y="3"/><text fill="#0000FF" font-family="sans-serif" font-size="14" lengthAdjust="spacingAndGlyphs" textLength="8" x="15" y="24.5332">a</text><rect fill="#FEFECE" filter="url(#fz5usm8)" height="31.6094" style="stroke: #A80036; stroke-width: 1.5;" width="22" x="8" y="116.9609"/><text fill="#0000FF" font-family="sans-serif" font-size="14" lengthAdjust="spacingAndGlyphs" textLength="8" x="15" y="138.4941">a</text><rect fill="#FEFECE" filter="url(#fz5usm8)" height="31.6094" style="stroke: #A80036; stroke-width: 1.5;" width="22" x="44" y="3"/><text fill="#0000FF" font-family="sans-serif" font-size="14" lengthAdjust="spacingAndGlyphs" textLength="8" x="51" y="24.5332">b</text><rect fill="#FEFECE" filter="url(#fz5usm8)" height="31.6094" style="stroke: #A80036; stroke-width: 1.5;" width="22" x="44" y="116.9609"/><text fill="#0000FF" font-family="sans-serif" font-size="14" lengthAdjust="spacingAndGlyphs" textLength="8" x="51" y="138.4941">b</text><rect fill="#FEFECE" filter="url(#fz5usm8)" height="31.6094" style="stroke: #A80036; stroke-width: 1.5;" width="21" x="123.5" y="3"/><text fill="#0000FF" font-family="sans-serif" font-size="14" lengthAdjust="spacingAndGlyphs" textLength="7" x="130.5" y="24.5332">c</text><rect fill="#FEFECE" filter="url(#fz5usm8)" height="31.6094" style="stroke: #A80036; stroke-width: 1.5;" width="21" x="123.5" y="116.9609"/><text fill="#0000FF" font-family="sans-serif" font-size="14" lengthAdjust="spacingAndGlyphs" textLength="7" x="130.5" y="138.4941">c</text><polygon fill="#A80036" points="45,51.6094,55,55.6094,45,59.6094,49,55.6094" style="stroke: #A80036; stroke-width: 1.0;"/><line style="stroke: #A80036; stroke-width: 1.0;" x1="21" x2="51" y1="55.6094" y2="55.6094"/><polygon fill="#A80036" points="124,65.6094,134,69.6094,124,73.6094,128,69.6094" style="stroke: #A80036; stroke-width: 1.0;"/><line style="stroke: #A80036; stroke-width: 1.0;" x1="57" x2="130" y1="69.6094" y2="69.6094"/><polygon fill="#A80036" points="32,95.6094,22,99.6094,32,103.6094,28,99.6094" style="stroke: #A80036; stroke-width: 1.0;"/><line style="stroke: #A80036; stroke-width: 1.0;" x1="26" x2="135" y1="99.6094" y2="99.6094"/><text fill="#0000FF" font-family="sans-serif" font-size="13" lengthAdjust="spacingAndGlyphs" textLength="91" x="38" y="95.1045">Prueba máxima</text></g></svg>